<?xml version="1.0" encoding="UTF-8"?>
<!DOCTYPE svg PUBLIC "-//W3C//DTD SVG 1.1//EN" "http://www.w3.org/Graphics/SVG/1.1/DTD/svg11.dtd">
<!-- Creator: CorelDRAW 2019 (64-Bit) -->
<svg xmlns="http://www.w3.org/2000/svg" xml:space="preserve" width="210mm" height="210mm" version="1.1" style="shape-rendering:geometricPrecision; text-rendering:geometricPrecision; image-rendering:optimizeQuality; fill-rule:evenodd; clip-rule:evenodd"
viewBox="0 0 21000 21000"
 xmlns:xlink="http://www.w3.org/1999/xlink"
 xmlns:xodm="http://www.corel.com/coreldraw/odm/2003"
 role="img">
 <defs>
  <style type="text/css">
   <![CDATA[
    .fil0 {fill:black}
   ]]>
  </style>
 </defs>
 <g id="Livello_x0020_1">
  <metadata id="CorelCorpID_0Corel-Layer"/>
  <path id="Oval" class="fil0" d="M21000 10500c0,-5798.99 -4701.01,-10500 -10500,-10500 -5798.99,0 -10500,4701.01 -10500,10500 0,5798.99 4701.01,10500 10500,10500 5798.99,0 10500,-4701.01 10500,-10500zm-16247.1 -110.84c3060.96,-1333.61 5102.08,-2212.81 6123.36,-2637.6 2915.96,-1212.84 3521.88,-1423.53 3916.8,-1430.48 86.86,-1.54 281.07,19.99 406.88,122.07 106.22,86.19 135.45,202.63 149.44,284.35 13.98,81.73 31.4,267.89 17.56,413.35 -158.02,1660.3 -841.76,5689.41 -1189.61,7548.97 -147.19,786.85 -437,1050.68 -717.58,1076.5 -609.75,56.11 -1072.77,-402.97 -1663.35,-790.1 -924.14,-605.78 -1446.21,-982.89 -2343.25,-1574.02 -1036.68,-683.15 -364.64,-1058.63 226.16,-1672.26 154.62,-160.59 2841.21,-2604.26 2893.21,-2825.93 6.5,-27.72 12.53,-131.07 -48.86,-185.64 -61.39,-54.57 -152.01,-35.91 -217.39,-21.07 -92.69,21.04 -1569.02,996.83 -4428.97,2927.38 -419.05,287.75 -798.61,427.95 -1138.68,420.61 -374.91,-8.11 -1096.07,-211.98 -1632.18,-386.25 -657.57,-213.75 -1180.19,-326.76 -1134.68,-689.76 23.7,-189.09 284.08,-382.46 781.14,-580.12z"/>
 </g>
</svg>
